<?xml version="1.0" encoding="UTF-8" standalone="no"?>
<!-- Created with Inkscape (http://www.inkscape.org/) -->

<svg
   width="512"
   height="512"
   viewBox="0 0 135.46667 135.46667"
   version="1.1"
   id="svg1"
   xml:space="preserve"
   xmlns:xlink="http://www.w3.org/1999/xlink"
   xmlns="http://www.w3.org/2000/svg"
   xmlns:svg="http://www.w3.org/2000/svg"><defs
     id="defs1"><linearGradient
       id="swatch10"><stop
         style="stop-color:#0b81a0;stop-opacity:1;"
         offset="0"
         id="stop10" /></linearGradient><linearGradient
       id="swatch9"><stop
         style="stop-color:#000000;stop-opacity:1;"
         offset="0"
         id="stop9" /></linearGradient><linearGradient
       id="swatch8"><stop
         style="stop-color:#000000;stop-opacity:1;"
         offset="0"
         id="stop8" /></linearGradient><linearGradient
       id="swatch7"><stop
         style="stop-color:#000000;stop-opacity:1;"
         offset="0"
         id="stop7" /></linearGradient><linearGradient
       id="swatch6"><stop
         style="stop-color:#000000;stop-opacity:1;"
         offset="0"
         id="stop6" /></linearGradient><linearGradient
       id="swatch3"><stop
         style="stop-color:#0b81a0;stop-opacity:1;"
         offset="0"
         id="stop3" /></linearGradient><linearGradient
       id="swatch5"><stop
         style="stop-color:#000000;stop-opacity:1;"
         offset="0"
         id="stop5" /></linearGradient><linearGradient
       id="swatch4"><stop
         style="stop-color:#000000;stop-opacity:1;"
         offset="0"
         id="stop4" /></linearGradient><linearGradient
       xlink:href="#swatch3"
       id="linearGradient3"
       x1="9.7434959"
       y1="21.926001"
       x2="38.276432"
       y2="21.926001"
       gradientUnits="userSpaceOnUse" /><linearGradient
       xlink:href="#swatch6"
       id="linearGradient7"
       x1="1.4504066"
       y1="67.733337"
       x2="134.01627"
       y2="67.733337"
       gradientUnits="userSpaceOnUse"
       gradientTransform="matrix(1.0489419,0,0,1.0489419,-3.314996,-3.314996)" /><linearGradient
       xlink:href="#swatch10"
       id="linearGradient10"
       x1="175.02034"
       y1="256.89935"
       x2="276.01816"
       y2="256.89935"
       gradientUnits="userSpaceOnUse" /><linearGradient
       xlink:href="#swatch10"
       id="linearGradient13"
       gradientUnits="userSpaceOnUse"
       x1="175.02034"
       y1="256.89935"
       x2="276.01816"
       y2="256.89935" /><linearGradient
       xlink:href="#swatch10"
       id="linearGradient14"
       gradientUnits="userSpaceOnUse"
       x1="175.02034"
       y1="256.89935"
       x2="276.01816"
       y2="256.89935" /><linearGradient
       xlink:href="#swatch10"
       id="linearGradient15"
       gradientUnits="userSpaceOnUse"
       x1="175.02034"
       y1="256.89935"
       x2="276.01816"
       y2="256.89935" /></defs><g
     id="layer1"><rect
       style="display:inline;fill:#ffffff;stroke:url(#linearGradient7);stroke-width:0.820146;stroke-linecap:round;stroke-linejoin:round;stroke-dasharray:none"
       id="rect1"
       width="133.14626"
       height="133.14626"
       x="1.160206"
       y="1.160206"
       ry="30.961676" /><g
       id="g5"
       transform="matrix(0.09718072,0,0,0.09718072,45.817212,42.382796)"
       style="display:inline;fill:#0b81a0;fill-opacity:1;stroke:#000000;stroke-width:38.1163;stroke-dasharray:none;stroke-opacity:1"><g
         id="blender_frame_1"
         style="fill:#0b81a0;fill-opacity:1;stroke:#000000;stroke-width:38.1163;stroke-dasharray:none;stroke-opacity:1"><g
           id="blender_object_Edges"
           style="fill:#0b81a0;fill-opacity:1;stroke:#000000;stroke-width:38.1163;stroke-dasharray:none;stroke-opacity:1"><!--Layer: Circle_Lines--><g
             id="Circle_Lines"
             style="fill:#0b81a0;fill-opacity:1;stroke:#000000;stroke-width:38.1163;stroke-dasharray:none;stroke-opacity:1"><polyline
               stroke="#000000"
               stroke-opacity="1"
               fill="none"
               stroke-linecap="round"
               stroke-width="25"
               points="24.626465,140.914307 225.519226,24.928833 426.412048,140.914307 426.412048,372.885254 225.519226,488.870728 24.626465,372.885254 24.626465,140.914307"
               id="polyline1"
               style="fill:none;fill-opacity:1;stroke:#000000;stroke-width:38.1163;stroke-dasharray:none;stroke-opacity:1" /><polyline
               stroke="#000000"
               stroke-opacity="1"
               fill="none"
               stroke-linecap="round"
               stroke-width="25"
               points="24.626465,140.914307 203.639832,244.267700"
               id="polyline2"
               style="fill:#0b81a0;fill-opacity:1;stroke:#000000;stroke-width:38.1163;stroke-dasharray:none;stroke-opacity:1" /><polyline
               stroke="#000000"
               stroke-opacity="1"
               fill="none"
               stroke-linecap="round"
               stroke-width="25"
               points="426.412048,140.914307 247.398621,244.267700"
               id="polyline3"
               style="fill:#0b81a0;fill-opacity:1;stroke:#000000;stroke-width:38.1163;stroke-dasharray:none;stroke-opacity:1" /><polyline
               stroke="#000000"
               stroke-opacity="1"
               fill="none"
               stroke-linecap="round"
               stroke-width="25"
               points="225.519226,488.870728 225.519226,282.163940"
               id="polyline4"
               style="fill:#0b81a0;fill-opacity:1;stroke:#000000;stroke-width:38.1163;stroke-dasharray:none;stroke-opacity:1" /></g></g></g><g
         id="g11"
         style="fill:#0b81a0;fill-opacity:1;stroke:#000000;stroke-width:76.2325;stroke-dasharray:none;stroke-opacity:1"><g
           id="blender_object_Verts"
           style="fill:#0b81a0;fill-opacity:1;stroke:#000000;stroke-width:76.2325;stroke-dasharray:none;stroke-opacity:1"><!--Layer: Circle_Lines--><g
             id="g10"
             style="fill:#0b81a0;fill-opacity:1;stroke:#000000;stroke-width:76.2325;stroke-dasharray:none;stroke-opacity:1"><polyline
               stroke="#000000"
               stroke-opacity="1"
               fill="none"
               stroke-linecap="round"
               stroke-width="25"
               points="223.031738,10.242859 225.519226,10.000000 228.006775,10.242859 230.398926,10.961975 232.603760,12.129822 234.536560,13.701477 236.123291,15.616272 237.302795,17.800781 238.029846,20.170837 238.276184,22.635437 238.032410,25.099792 237.307617,27.469177 236.129517,29.652588 234.543396,31.566162 232.609985,33.136414 230.403748,34.303162 228.009460,35.021545 225.519226,35.264160 223.029053,35.021545 220.634766,34.303162 218.428528,33.136414 216.495117,31.566162 214.908997,29.652588 213.730896,27.469177 213.006104,25.099792 212.762329,22.635437 213.008667,20.170837 213.735657,17.800781 214.915222,15.616272 216.501953,13.701477 218.434814,12.129822 220.639587,10.961975 223.031738,10.242859"
               id="polyline5"
               style="fill:#0b81a0;fill-opacity:1;stroke:#000000;stroke-width:76.2325;stroke-dasharray:none;stroke-opacity:1" /><polyline
               stroke="#000000"
               stroke-opacity="1"
               fill="none"
               stroke-linecap="round"
               stroke-width="25"
               points="437.886597,131.416992 439.340698,133.449890 440.374268,135.725586 440.947388,138.156799 441.038452,140.650208 440.643860,143.109863 439.778870,145.441406 438.476868,147.555176 436.787781,149.369751 434.776550,150.815552 432.520569,151.836548 430.106201,152.393555 427.626282,152.465027 425.176025,152.048096 422.849365,151.158875 420.735901,149.831604 418.916504,148.117249 417.461365,146.081970 416.426331,143.804138 415.851379,141.371399 415.758606,138.877319 416.151855,136.417847 417.015930,134.087402 418.317810,131.975464 420.007324,130.163086 422.019653,128.719788 424.277283,127.700806 426.693359,127.145447 429.174866,127.074707 431.626526,127.491394 433.954041,128.379456 436.067810,129.705017 437.886597,131.416992"
               id="polyline6"
               style="fill:#0b81a0;fill-opacity:1;stroke:#000000;stroke-width:76.2325;stroke-dasharray:none;stroke-opacity:1" /><polyline
               stroke="#000000"
               stroke-opacity="1"
               fill="none"
               stroke-linecap="round"
               stroke-width="25"
               points="440.374146,378.073975 439.340698,380.349731 437.886597,382.382568 436.067810,384.094604 433.954041,385.420166 431.626526,386.308228 429.174866,386.724976 426.693237,386.654175 424.277283,386.098755 422.019653,385.079834 420.007324,383.636475 418.317749,381.824097 417.015930,379.712158 416.151794,377.381714 415.758606,374.922241 415.851379,372.428223 416.426331,369.995483 417.461365,367.717651 418.916504,365.682373 420.735779,363.968018 422.849365,362.640747 425.176025,361.751526 427.626221,361.334595 430.106201,361.406128 432.520447,361.963074 434.776550,362.984131 436.787781,364.429810 438.476868,366.244507 439.778870,368.358215 440.643860,370.689758 441.038452,373.149475 440.947388,375.642822 440.374146,378.073975"
               id="polyline7"
               style="fill:#0b81a0;fill-opacity:1;stroke:#000000;stroke-width:76.2325;stroke-dasharray:none;stroke-opacity:1" /><polyline
               stroke="#000000"
               stroke-opacity="1"
               fill="none"
               stroke-linecap="round"
               stroke-width="25"
               points="228.006775,503.556763 225.519226,503.799622 223.031677,503.556763 220.639587,502.837585 218.434753,501.669739 216.501892,500.098145 214.915161,498.183289 213.735657,495.998779 213.008667,493.628723 212.762268,491.164062 213.006042,488.699768 213.730835,486.330383 214.908936,484.146973 216.495117,482.233398 218.428467,480.663147 220.634766,479.496460 223.029053,478.777954 225.519226,478.535400 228.009399,478.778015 230.403748,479.496460 232.609985,480.663147 234.543396,482.233459 236.129517,484.146973 237.307617,486.330383 238.032410,488.699768 238.276184,491.164124 238.029724,493.628723 237.302795,495.998840 236.123230,498.183289 234.536560,500.098145 232.603638,501.669739 230.398865,502.837646 228.006775,503.556763"
               id="polyline8"
               style="fill:#0b81a0;fill-opacity:1;stroke:#000000;stroke-width:76.2325;stroke-dasharray:none;stroke-opacity:1" /><polyline
               stroke="#000000"
               stroke-opacity="1"
               fill="none"
               stroke-linecap="round"
               stroke-width="25"
               points="13.151794,382.382507 11.697754,380.349609 10.664246,378.073975 10.091003,375.642700 10.000000,373.149414 10.394653,370.689697 11.259521,368.358154 12.561646,366.244385 14.250671,364.429749 16.261902,362.984009 18.517944,361.963013 20.932312,361.406006 23.412231,361.334595 25.862488,361.751465 28.189087,362.640625 30.302612,363.968018 32.122009,365.682312 33.577148,367.717590 34.612122,369.995422 35.187073,372.428162 35.279846,374.922241 34.886658,377.381714 34.022522,379.712158 32.720703,381.824097 31.031128,383.636475 29.018799,385.079712 26.761230,386.098633 24.345154,386.654175 21.863586,386.724854 19.411926,386.308167 17.084473,385.420044 14.970642,384.094482 13.151794,382.382507"
               id="polyline9"
               style="fill:#0b81a0;fill-opacity:1;stroke:#000000;stroke-width:76.2325;stroke-dasharray:none;stroke-opacity:1" /><polyline
               stroke="#000000"
               stroke-opacity="1"
               fill="none"
               stroke-linecap="round"
               stroke-width="25"
               points="10.664307,135.725525 11.697815,133.449890 13.151917,131.416931 14.970703,129.704956 17.084534,128.379395 19.411987,127.491272 21.863647,127.074585 24.345276,127.145325 26.761353,127.700806 29.018982,128.719727 31.031189,130.163025 32.720764,131.975342 34.022583,134.087341 34.886658,136.417725 35.279907,138.877258 35.187134,141.371338 34.612183,143.804077 33.577148,146.081909 32.122009,148.117188 30.302734,149.831482 28.189148,151.158813 25.862488,152.048035 23.412231,152.464905 20.932312,152.393463 18.517944,151.836426 16.261902,150.815369 14.250732,149.369629 12.561646,147.555054 11.259644,145.441284 10.394653,143.109741 10.000061,140.650085 10.091125,138.156677 10.664307,135.725525"
               id="polyline10"
               style="fill:#0b81a0;fill-opacity:1;stroke:#000000;stroke-width:76.2325;stroke-dasharray:none;stroke-opacity:1" /></g></g></g><g
         id="g13"
         style="fill:url(#linearGradient10);fill-opacity:1;stroke:#000000;stroke-width:76.2325;stroke-dasharray:none;stroke-opacity:1"><g
           id="blender_object_Center Vert"
           style="fill:url(#linearGradient15);fill-opacity:1;stroke:#000000;stroke-width:76.2325;stroke-dasharray:none;stroke-opacity:1"><!--Layer: Circle_Lines--><g
             id="g12"
             style="fill:url(#linearGradient14);fill-opacity:1;stroke:#000000;stroke-width:76.2325;stroke-dasharray:none;stroke-opacity:1"><polyline
               stroke="#000000"
               stroke-opacity="1"
               fill="none"
               stroke-linecap="round"
               stroke-width="25"
               points="223.031738,244.510559 225.519226,244.267700 228.006775,244.510559 230.398926,245.229675 232.603760,246.397583 234.536560,247.969116 236.123291,249.884033 237.302795,252.068481 238.029846,254.438599 238.276184,256.903198 238.032410,259.367554 237.307617,261.736877 236.129517,263.920288 234.543396,265.833862 232.609985,267.404114 230.403748,268.570862 228.009460,269.289307 225.519226,269.531860 223.029053,269.289307 220.634766,268.570862 218.428528,267.404114 216.495117,265.833862 214.908997,263.920288 213.730896,261.736877 213.006104,259.367554 212.762329,256.903198 213.008667,254.438599 213.735657,252.068481 214.915222,249.884033 216.501953,247.969116 218.434814,246.397583 220.639587,245.229675 223.031738,244.510559"
               id="polyline11"
               style="fill:url(#linearGradient13);fill-opacity:1;stroke:#000000;stroke-width:76.2325;stroke-dasharray:none;stroke-opacity:1" /></g></g></g></g><g
       id="g1"
       transform="matrix(-2.6828601,0,0,-2.4430675,132.14747,157.44121)"
       style="stroke:#000000;stroke-width:0.516732;stroke-linecap:round;stroke-linejoin:round;stroke-dasharray:none;stroke-opacity:1;paint-order:stroke fill markers"><path
         fill="#0b81a0"
         d="m 0.035,24.913993 c 0.883,0.252 5.047,-0.252 8.076,-2.524 0.126,1.262 0.505,2.524 0.505,2.524 -1.009,0.631 -3.028,1.514 -4.038,2.019 0.505,1.64 2.145,5.804 2.776,6.814 0.631,1.009 1.136,1.767 2.524,2.524 -1.514,-0.126 -3.533,-0.757 -3.533,-0.757 -0.757,-1.514 -3.253,-7.011 -3.785,-8.076 -0.38,-0.757 -1.389,-1.893 -2.525,-2.524 z"
         id="path1"
         style="stroke:#000000;stroke-width:0.516732;stroke-linecap:round;stroke-linejoin:round;stroke-dasharray:none;stroke-opacity:1;paint-order:stroke fill markers" /><path
         fill="#0b81a0"
         d="m 6.597,29.119568 c 0.757,0.126 2.019,-0.252 2.65,-0.757 0.252,0.631 0.631,1.262 0.631,1.262 -0.252,0.252 -0.757,0.757 -0.757,0.757 0.505,1.009 1.893,4.29 3.028,5.047 -1.009,-0.126 -2.145,-0.505 -2.145,-0.505 -0.631,-1.388 -2.019,-5.173 -3.407,-5.804 z"
         id="path2"
         style="stroke:#000000;stroke-width:0.516732;stroke-linecap:round;stroke-linejoin:round;stroke-dasharray:none;stroke-opacity:1;paint-order:stroke fill markers" /><path
         fill="#0b81a0"
         d="m 47.984,24.913993 c -0.883,0.252 -5.047,-0.252 -8.076,-2.524 -0.126,1.262 -0.505,2.524 -0.505,2.524 1.009,0.631 3.028,1.514 4.038,2.019 -0.505,1.64 -2.145,5.804 -2.776,6.814 -0.631,1.009 -1.136,1.767 -2.524,2.524 1.514,-0.126 3.533,-0.757 3.533,-0.757 0.757,-1.514 3.253,-7.011 3.785,-8.076 0.38,-0.757 1.389,-1.893 2.525,-2.524 z"
         id="path3"
         style="stroke:#000000;stroke-width:0.516732;stroke-linecap:round;stroke-linejoin:round;stroke-dasharray:none;stroke-opacity:1;paint-order:stroke fill markers" /><path
         fill="#0b81a0"
         d="m 41.423,29.119568 c -0.757,0.126 -2.019,-0.252 -2.65,-0.757 -0.252,0.631 -0.631,1.262 -0.631,1.262 0.252,0.252 0.757,0.757 0.757,0.757 -0.505,1.009 -1.893,4.29 -3.028,5.047 1.009,-0.126 2.145,-0.505 2.145,-0.505 0.631,-1.388 2.019,-5.173 3.407,-5.804 z"
         id="path4"
         style="stroke:#000000;stroke-width:0.516732;stroke-linecap:round;stroke-linejoin:round;stroke-dasharray:none;stroke-opacity:1;paint-order:stroke fill markers" /><path
         fill="#0b81a0"
         d="M 38.142,21.169 C 31.076,18.645 25.524,14.608 24.01,9.56 c -1.514,5.047 -7.066,9.085 -14.132,11.609 -0.505,3.912 0.252,8.959 5.047,13.123 -4.29,-6.309 -2.943,-9.566 1.136,-11.987 4.038,-2.397 7.949,-4.669 7.949,-4.669 0,0 3.912,2.271 7.949,4.669 4.078,2.422 5.426,5.678 1.136,11.987 4.794,-4.164 5.552,-9.211 5.047,-13.123 z"
         id="path5"
         style="fill:url(#linearGradient3);stroke:#000000;stroke-width:0.516732;stroke-linecap:round;stroke-linejoin:round;stroke-dasharray:none;stroke-opacity:1;paint-order:stroke fill markers" /><path
         fill="#0b81a0"
         d="m 29.801561,22.527269 c -2.151628,-0.827601 -5.1302,-2.399515 -5.792543,-4.633773 -0.661686,2.234258 -3.640916,3.806172 -5.792544,4.633773 -0.248542,1.158772 -0.165258,3.475656 1.820457,5.62663 -2.482144,-3.475657 -0.482001,-4.443595 0.661687,-5.130201 1.6552,-0.992858 3.309744,-1.820458 3.309744,-1.820458 0,0 1.6552,0.8276 3.309744,1.820458 1.144344,0.686606 3.144487,1.6552 0.661686,5.130201 1.987682,-2.150974 2.070312,-4.467858 1.821769,-5.62663 z"
         id="path6"
         style="display:none;stroke:#000000;stroke-width:0.516732;stroke-linecap:round;stroke-linejoin:round;stroke-dasharray:none;stroke-opacity:1;paint-order:stroke fill markers" /><path
         fill="#0b81a0"
         d="m 29.715,22.941033 c -1.668,-0.905 -4.949,-2.42 -5.706,-4.565 -0.757,2.145 -4.038,3.659 -5.706,4.565 -0.245,1.141 -0.225,3.385 1.92,5.53 -2.65,-3.155 -0.23,-4.626 0.525,-5.041 1.62,-0.89 3.261,-1.793 3.261,-1.793 0,0 1.64,0.903 3.261,1.793 0.755,0.415 3.175,1.886 0.525,5.041 2.145,-2.145 2.165,-4.389 1.92,-5.53 z"
         id="path7"
         style="display:inline;stroke:#000000;stroke-width:0.516732;stroke-linecap:round;stroke-linejoin:round;stroke-dasharray:none;stroke-opacity:1;paint-order:stroke fill markers" /></g><use
       x="0"
       y="0"
       xlink:href="#g1"
       id="use13"
       transform="matrix(1,0,0,-1,0,135.46667)" /></g></svg>
